<?xml version="1.0" encoding="UTF-8"?>
<svg xmlns="http://www.w3.org/2000/svg" width="512" height="512" viewBox="0 0 64 64" fill="none">
  <defs>
    <linearGradient id="g" x1="0" y1="0" x2="1" y2="1">
      <stop offset="0%" stop-color="#4f46e5"/>
      <stop offset="100%" stop-color="#22c55e"/>
    </linearGradient>
  </defs>
  <rect width="64" height="64" rx="14" fill="#0b1220"/>
  <g transform="translate(8,8)">
    <path d="M24 37c-6-5.3-10-8.9-10-14.2C14 19 16.7 16 20.3 16c2 0 3.7 1 4.7 2.6C26 17 27.7 16 29.7 16 33.3 16 36 19 36 22.8 36 28.1 32 31.7 26 37l-2 1.8-2-1.8z" fill="url(#g)"/>
    <path d="M9 30c0-1.1.9-2 2-2h7c1.1 0 2 .9 2 2 0 .6-.3 1.2-.8 1.6l-5.2 4.1c-.7.6-1.8.6-2.6 0l-5.2-4.1c-.5-.4-.8-1-.8-1.6z" fill="#1f2937"/>
    <path d="M45 30c0-1.1-.9-2-2-2h-7c-1.1 0-2 .9-2 2 0 .6.3 1.2.8 1.6l5.2 4.1c.7.6 1.8.6 2.6 0l5.2-4.1c.5-.4.8-1 .8-1.6z" fill="#1f2937"/>
  </g>
</svg>
